<?xml version="1.0" encoding="iso-8859-1"?>
<!-- Generator: Adobe Illustrator 19.0.0, SVG Export Plug-In . SVG Version: 6.00 Build 0)  -->
<svg version="1.1" id="Capa_1" xmlns="http://www.w3.org/2000/svg" xmlns:xlink="http://www.w3.org/1999/xlink" x="0px" y="0px"
	 viewBox="0 0 429.453 429.453" style="enable-background:new 0 0 429.453 429.453;" xml:space="preserve">
<path style="fill:#4DCFE0;" d="M341.682,260.18c-31.869,0-57.992-26.122-57.992-57.992s26.122-57.992,57.992-57.992
	s57.992,26.122,57.992,57.992S373.551,260.18,341.682,260.18z M341.682,175.543c-14.629,0-26.645,12.016-26.645,26.645
	s12.016,26.645,26.645,26.645s26.645-12.016,26.645-26.645S356.31,175.543,341.682,175.543z"/>
<path style="fill:#1185E0;" d="M326.008,245.551v74.188c0,43.363-35.004,78.367-78.367,78.367s-78.367-35.004-78.367-78.367v-88.294
	c62.694-6.792,111.282-60.082,111.282-124.343v-74.71c0-8.882-6.792-15.673-15.673-15.673h-33.959v-1.045
	C230.922,6.792,224.131,0,215.249,0s-15.673,6.792-15.673,15.673V49.11c0,8.882,6.792,15.673,15.673,15.673
	s15.673-6.792,15.673-15.673v-1.045h18.286v59.037c0,51.722-42.318,94.041-94.041,94.041s-94.041-42.318-94.041-94.041V48.065
	h17.241v1.045c0,8.882,6.792,15.673,15.673,15.673s15.673-6.792,15.673-15.673V15.673C109.714,6.792,102.922,0,94.041,0
	S78.367,6.792,78.367,15.673v1.045H45.453c-8.882,0-15.673,6.792-15.673,15.673v74.71c0,63.216,47.02,115.984,108.147,124.343
	v88.294c0,60.604,49.11,109.714,109.714,109.714s109.714-49.11,109.714-109.714v-74.188H326.008z"/>
<g>
</g>
<g>
</g>
<g>
</g>
<g>
</g>
<g>
</g>
<g>
</g>
<g>
</g>
<g>
</g>
<g>
</g>
<g>
</g>
<g>
</g>
<g>
</g>
<g>
</g>
<g>
</g>
<g>
</g>
</svg>
