<?xml version="1.0" encoding="iso-8859-1"?>
<!-- Generator: Adobe Illustrator 19.0.0, SVG Export Plug-In . SVG Version: 6.00 Build 0)  -->
<svg version="1.1" id="Capa_1" xmlns="http://www.w3.org/2000/svg" xmlns:xlink="http://www.w3.org/1999/xlink" x="0px" y="0px"
	 viewBox="0 0 460.8 460.8" style="enable-background:new 0 0 460.8 460.8;" xml:space="preserve">
<path style="fill:#1185E0;" d="M83.369,460.8c-4.702,0-8.882-2.09-12.016-5.747c-5.224-6.792-4.18-16.718,2.612-21.943
	l58.514-47.543c3.135-2.612,7.314-3.657,12.016-3.135l154.645,18.808c3.657,0.522,6.792-0.522,9.927-2.612l106.057-79.935
	c3.135-2.612,4.18-6.792,2.09-10.449c-0.522,0-0.522-0.522-1.045-1.045c-2.612-3.657-8.359-4.702-11.494-2.09
	c-29.78,21.943-84.114,61.649-84.637,61.649c-3.135,2.09-6.792,3.135-10.449,3.135l-79.935-6.269
	c-4.702-0.522-8.359-2.612-11.494-6.269l-17.763-23.51c-3.135-4.18-4.18-9.927-2.09-14.629c2.09-5.224,6.269-8.882,11.494-9.927
	l66.873-14.629c0.522,0,1.045,0,1.567,0c4.702-0.522,6.792-4.702,6.792-8.359c-0.522-4.18-3.657-7.314-7.837-7.314H164.348
	c-3.135,0-6.269,0.522-8.882,2.09L36.348,364.147c-7.314,5.224-16.718,3.135-21.943-3.657c-4.702-7.314-3.135-16.718,3.657-21.943
	l119.641-83.592c0.522,0,0.522-0.522,1.045-0.522c7.837-4.702,16.196-6.792,25.078-6.792h112.327
	c20.376,0,37.616,15.673,39.184,36.571v0.522c1.045,20.898-13.584,38.139-33.437,41.273l-36.571,7.314l60.604,4.702
	c14.106-9.927,55.38-40.229,79.935-57.992c16.718-12.539,41.273-9.404,54.335,7.314c0.522,0.522,1.045,1.045,1.045,1.567
	c13.061,17.241,9.404,41.796-7.837,54.857l-105.535,79.935c-9.927,7.314-20.898,10.449-32.914,8.882l-147.853-18.286l-53.812,43.363
	C90.161,459.755,87.026,460.8,83.369,460.8z"/>
<g>
	<path style="fill:#4DCFE0;" d="M349.295,101.355h-31.347V70.008c0-8.882-6.792-15.673-15.673-15.673
		c-8.882,0-15.673,6.792-15.673,15.673v31.347h-31.347c-8.882,0-15.673,6.792-15.673,15.673s6.792,15.673,15.673,15.673h31.347
		v31.347c0,8.882,6.792,15.673,15.673,15.673c8.882,0,15.673-6.792,15.673-15.673v-31.347h31.347
		c8.882,0,15.673-6.792,15.673-15.673S358.177,101.355,349.295,101.355z"/>
	<path style="fill:#4DCFE0;" d="M302.275,0c-64.784,0-117.029,52.245-117.029,117.029s52.245,117.029,117.029,117.029
		s117.029-52.245,117.029-117.029S367.059,0,302.275,0z M302.275,202.71c-47.02,0-85.682-38.661-85.682-85.682
		s38.661-85.682,85.682-85.682s85.682,38.661,85.682,85.682S349.295,202.71,302.275,202.71z"/>
</g>
<g>
</g>
<g>
</g>
<g>
</g>
<g>
</g>
<g>
</g>
<g>
</g>
<g>
</g>
<g>
</g>
<g>
</g>
<g>
</g>
<g>
</g>
<g>
</g>
<g>
</g>
<g>
</g>
<g>
</g>
</svg>
