<?xml version="1.0" encoding="iso-8859-1"?>
<!-- Generator: Adobe Illustrator 19.0.0, SVG Export Plug-In . SVG Version: 6.00 Build 0)  -->
<svg version="1.1" id="Capa_1" xmlns="http://www.w3.org/2000/svg" xmlns:xlink="http://www.w3.org/1999/xlink" x="0px" y="0px"
	 viewBox="0 0 497.47 497.47" style="enable-background:new 0 0 497.47 497.47;" xml:space="preserve">
<path style="fill:#1185E0;" d="M491.723,228.882l-82.024-65.829V34.531c0-8.882-6.792-15.673-15.673-15.673h-61.649
	c-8.882,0-15.673,6.792-15.673,15.673v54.335L258.711,42.89c-5.747-4.702-13.584-4.702-19.331,0L5.846,228.882
	c-3.135,2.612-5.747,6.792-5.747,10.971c-0.522,4.18,1.045,8.359,4.18,12.016l46.498,51.2c3.135,3.657,7.314,5.224,11.494,5.224
	c3.657,0,6.792-1.045,9.927-3.657l4.702-3.657v161.959c0,8.882,6.792,15.673,15.673,15.673h312.424
	c8.882,0,15.673-6.792,15.673-15.673V300.458l4.702,3.657c6.269,5.224,15.673,4.18,21.42-1.567l46.498-51.2
	c3.135-3.135,4.18-7.314,4.18-12.016C496.948,235.152,494.858,231.494,491.723,228.882z M348.05,50.205h30.302v88.294
	l-30.302-24.555V50.205z M389.323,447.266H108.246V275.38l140.539-112.849L389.323,275.38V447.266z M433.732,270.678
	l-175.02-140.016c-5.747-4.702-14.106-4.702-19.853,0L63.838,270.678l-25.6-27.69L248.785,74.76l210.024,167.706L433.732,270.678z"
	/>
<path style="fill:#4DCFE0;" d="M301.552,321.878h-37.094v-37.094c0-8.882-6.792-15.673-15.673-15.673s-15.673,6.792-15.673,15.673
	v37.094h-37.094c-8.882,0-15.673,6.792-15.673,15.673c0,8.882,6.792,15.673,15.673,15.673h37.094v37.094
	c0,8.882,6.792,15.673,15.673,15.673s15.673-6.792,15.673-15.673v-37.094h37.094c8.882,0,15.673-6.792,15.673-15.673
	C317.226,328.67,310.434,321.878,301.552,321.878z"/>
<g>
</g>
<g>
</g>
<g>
</g>
<g>
</g>
<g>
</g>
<g>
</g>
<g>
</g>
<g>
</g>
<g>
</g>
<g>
</g>
<g>
</g>
<g>
</g>
<g>
</g>
<g>
</g>
<g>
</g>
</svg>
