<?xml version="1.0" encoding="iso-8859-1"?>
<!-- Generator: Adobe Illustrator 19.0.0, SVG Export Plug-In . SVG Version: 6.00 Build 0)  -->
<svg version="1.1" id="Capa_1" xmlns="http://www.w3.org/2000/svg" xmlns:xlink="http://www.w3.org/1999/xlink" x="0px" y="0px"
	 viewBox="0 0 464.099 464.099" style="enable-background:new 0 0 464.099 464.099;" xml:space="preserve">
<path style="fill:#4DCFE0;" d="M125.866,226.302C96.609,186.596,84.07,139.576,92.429,97.258
	c10.449-51.722,47.543-85.159,95.086-85.159c22.988,0,46.498,7.837,70.531,23.51c23.51-15.151,47.543-22.988,70.008-22.988
	c47.543,0,84.637,33.437,95.086,84.637c6.792,35.004-0.522,73.143-19.853,107.625l-27.167-15.673
	c16.196-28.212,21.943-58.514,16.718-85.682c-7.314-36.571-32.392-59.559-64.784-59.559c-18.808,0-39.706,8.359-60.604,23.51
	c-5.747,4.18-13.061,4.18-18.808,0c-21.42-15.673-42.318-24.033-61.127-24.033c-32.392,0-56.947,22.988-64.784,60.082
	c-6.269,33.437,3.657,71.576,28.212,103.967L125.866,226.302z"/>
<path style="fill:#1185E0;" d="M102.878,452c-4.18,0-8.359-1.567-10.971-4.702L4.658,360.049c-5.747-5.747-6.269-15.151-1.045-21.42
	L109.67,215.331c0-0.522,0.522-0.522,1.045-1.045c6.792-6.792,15.673-12.016,25.078-14.106l122.253-30.824
	c21.42-5.747,43.886,6.269,50.678,27.69c6.792,20.898-3.657,43.886-24.033,52.245l-49.633,20.376l7.314,8.359l73.665-17.763
	c11.494-13.584,49.633-59.559,72.098-86.727c7.314-8.882,17.241-14.106,28.735-15.151c11.494-1.045,22.465,2.09,31.347,9.404
	c0.522,0.522,1.045,0.522,1.045,1.045l0,0c17.241,14.629,19.853,40.229,5.747,57.992L361.49,344.376
	c-8.359,9.927-19.853,16.196-32.392,17.763l-166.661,20.898l-47.02,62.694c-2.612,3.657-6.792,5.747-11.494,6.269
	C103.401,452,103.401,452,102.878,452z M37.05,348.033l64.261,64.261l40.229-53.29c2.612-3.135,6.269-5.747,10.449-6.269
	l173.453-21.943c4.702-0.522,8.882-3.135,12.016-6.792l93.518-115.984c3.657-4.702,2.612-11.494-2.09-15.151
	c-0.522-0.522-0.522-0.522-1.045-1.045c-2.09-1.567-5.224-2.612-7.837-2.09c-3.135,0.522-5.747,1.567-7.837,4.18
	c-26.645,32.392-75.233,90.906-75.233,90.906c-2.09,2.612-5.224,4.702-8.359,5.224l-87.771,20.898
	c-5.747,1.567-11.494-0.522-15.151-4.702l-28.735-31.869c-3.657-3.657-4.702-8.882-3.657-14.106
	c1.045-5.224,4.702-8.882,9.404-10.971l70.531-28.735c5.224-2.09,7.837-7.837,6.269-13.584c-1.567-5.224-7.314-8.359-13.061-6.792
	l-123.298,30.824c-3.657,1.045-7.314,2.612-9.927,5.224L37.05,348.033z"/>
<g>
</g>
<g>
</g>
<g>
</g>
<g>
</g>
<g>
</g>
<g>
</g>
<g>
</g>
<g>
</g>
<g>
</g>
<g>
</g>
<g>
</g>
<g>
</g>
<g>
</g>
<g>
</g>
<g>
</g>
</svg>
