<?xml version="1.0" encoding="iso-8859-1"?>
<!-- Generator: Adobe Illustrator 19.0.0, SVG Export Plug-In . SVG Version: 6.00 Build 0)  -->
<svg version="1.1" id="Capa_1" xmlns="http://www.w3.org/2000/svg" xmlns:xlink="http://www.w3.org/1999/xlink" x="0px" y="0px"
	 viewBox="0 0 404.898 404.898" style="enable-background:new 0 0 404.898 404.898;" xml:space="preserve">
<path style="fill:#1185E0;" d="M378.775,79.935h-93.518V52.767c0-14.629-11.494-26.122-26.122-26.122H146.286
	c-14.629,0-26.122,11.494-26.122,26.122v27.167H26.122C11.494,79.935,0,91.429,0,106.057v246.073
	c0,14.629,11.494,26.122,26.122,26.122h352.653c14.629,0,26.122-11.494,26.122-26.122V106.057
	C404.898,91.429,393.404,79.935,378.775,79.935z M151.51,57.992h102.4v21.943h-102.4V57.992z M373.551,346.906H31.347V111.282
	h342.204V346.906z"/>
<path style="fill:#4DCFE0;" d="M256,213.159h-37.616v-37.616c0-8.882-6.792-15.673-15.673-15.673s-15.673,6.792-15.673,15.673
	v37.616H149.42c-8.882,0-15.673,6.792-15.673,15.673c0,8.882,6.792,15.673,15.673,15.673h37.616v37.616
	c0,8.882,6.792,15.673,15.673,15.673s15.673-6.792,15.673-15.673v-37.616H256c8.882,0,15.673-6.792,15.673-15.673
	S264.882,213.159,256,213.159z"/>
<g>
</g>
<g>
</g>
<g>
</g>
<g>
</g>
<g>
</g>
<g>
</g>
<g>
</g>
<g>
</g>
<g>
</g>
<g>
</g>
<g>
</g>
<g>
</g>
<g>
</g>
<g>
</g>
<g>
</g>
</svg>
